<svg width="32" height="32" viewBox="0 0 32 32" fill="none" xmlns="http://www.w3.org/2000/svg">
<path d="M0 4C0 1.79086 1.79086 0 4 0H28C30.2091 0 32 1.79086 32 4V28C32 30.2091 30.2091 32 28 32H4C1.79086 32 0 30.2091 0 28V4Z" fill="#002366"/>
<path d="M16.8358 3.67261C16.7736 3.60305 16.737 3.56644 16.737 3.56644H7.0625L15.335 11.8403C19.0869 7.06268 17.3958 4.34989 16.8358 3.67261Z" fill="#679DFA"/>
<path d="M16.8358 3.67261C16.7736 3.60305 16.737 3.56644 16.737 3.56644C16.737 3.56644 17.6594 6.41441 14.3613 10.8625L15.3387 11.84C19.0869 7.06241 17.3958 4.34989 16.8358 3.67261Z" fill="#3A40D6"/>
<path d="M21.1514 8.00694L16.7406 3.5625C16.7662 3.58813 16.7992 3.62474 16.8358 3.66867C17.3958 4.34595 19.0869 7.05874 15.3387 11.8363L7.0625 20.1175H16.7406L24.9985 11.8253L21.1514 8.00694Z" fill="#4471DF"/>
<path d="M16.7433 20.1178L21.5313 15.25L24.9094 18.7095L24.8345 28.4334L16.7433 20.1178Z" fill="#679DFA"/>
</svg>
